<?xml version="1.0" encoding="UTF-8" standalone="no"?>
<svg
   xmlns:dc="http://purl.org/dc/elements/1.1/"
   xmlns:cc="http://creativecommons.org/ns#"
   xmlns:rdf="http://www.w3.org/1999/02/22-rdf-syntax-ns#"
   xmlns:svg="http://www.w3.org/2000/svg"
   xmlns="http://www.w3.org/2000/svg"
   xmlns:sodipodi="http://sodipodi.sourceforge.net/DTD/sodipodi-0.dtd"
   xmlns:inkscape="http://www.inkscape.org/namespaces/inkscape"
   version="1"
   width="32.666691pc"
   height="24.666691pc"
   viewBox="0 0 392.0001 296.00015"
   id="svg6"
   sodipodi:docname="logo-biz-cap.svg"
   inkscape:version="0.92.3 (2405546, 2018-03-11)">
  <metadata
     id="metadata12">
    <rdf:RDF>
      <cc:Work
         rdf:about="">
        <dc:format>image/svg+xml</dc:format>
        <dc:type
           rdf:resource="http://purl.org/dc/dcmitype/StillImage" />
        <dc:title></dc:title>
      </cc:Work>
    </rdf:RDF>
  </metadata>
  <defs
     id="defs10" />
  <sodipodi:namedview
     pagecolor="#ffffff"
     bordercolor="#666666"
     borderopacity="1"
     objecttolerance="10"
     gridtolerance="10"
     guidetolerance="10"
     inkscape:pageopacity="0"
     inkscape:pageshadow="2"
     inkscape:window-width="1920"
     inkscape:window-height="1023"
     id="namedview8"
     showgrid="false"
     inkscape:zoom="1.2368905"
     inkscape:cx="365.9853"
     inkscape:cy="202.24253"
     inkscape:window-x="1080"
     inkscape:window-y="811"
     inkscape:window-maximized="1"
     inkscape:current-layer="svg6"
     units="pc" />
  <path
     d="M 104.17056,38.442337 C 42.373435,60.9401 11.629358,72.48389 10.856894,73.57929 c -2.8581191,4.1288 -2.2401501,9.60579 1.390433,12.04936 1.390446,0.84263 11.509718,4.88717 22.55595,8.931702 11.123487,3.96029 20.315809,7.414998 20.470309,7.583528 0.15448,0.16852 -0.54073,1.51671 -1.62218,3.03342 -6.10246,8.84744 -11.20073,24.09873 -13.286385,39.43429 -0.772464,5.30846 -1.467674,10.95396 -1.699424,12.38641 -0.231736,1.93801 -1.0042,3.11766 -2.549128,3.96029 -2.549129,1.5167 -5.870721,6.06681 -7.570145,10.36413 -0.849705,2.27505 -1.081454,4.88715 -0.772463,8.9317 0.30899,4.71864 0.772463,6.40386 2.93536,9.85857 1.390433,2.27505 3.86232,4.97143 5.484502,6.06682 2.394633,1.60096 2.858106,2.35932 2.549128,4.04454 -0.231736,1.17967 -0.540727,3.45472 -0.772464,5.05568 -0.849718,5.81402 -1.313191,8.08908 -3.244351,15.58835 -4.943774,18.87453 -12.900151,33.53599 -27.2679881,50.13547 -2.935361,3.45472 -5.407248,6.57239 -5.407248,6.82517 0,1.85375 8.6515991,7.58352 20.0068221,13.31328 5.947975,2.94915 7.879135,3.53899 10.505518,3.2862 8.960577,-1.17966 19.311596,-11.79659 24.487106,-25.2784 3.39885,-8.67892 4.55754,-17.02078 4.48029,-31.00815 -0.0772,-14.15591 -0.30898,-16.85227 -1.93116,-31.42947 l -1.31319,-10.7012 2.39465,-2.44357 c 7.80187,-7.92057 7.1839,-23.59316 -1.1587,-31.09242 -2.85812,-2.6121 -2.93537,-3.45472 -1.46769,-12.80773 0.23174,-1.17966 0.54073,-3.45471 0.77247,-5.05567 1.39043,-9.18449 4.3258,-18.5375 7.72463,-24.52004 4.63479,-8.17335 11.97319,-14.40869 24.33263,-20.728298 C 105.4065,91.94825 159.40174,68.60788 185.51103,58.49652 c 8.72884,-3.370453 11.50972,-4.128813 14.29058,-3.791763 8.8061,1.0954 10.58276,13.734603 2.47189,18.200443 -1.54493,0.84262 -5.79348,2.6121 -9.42406,3.87602 -11.8187,4.21307 -52.99104,21.233862 -62.18336,25.78397 -0.84971,0.33704 -8.49711,3.79176 -16.99421,7.49926 -8.49711,3.79176 -15.526544,6.99368 -15.681034,7.16221 -0.15448,0.0842 15.681034,5.98256 35.147124,13.06051 19.4661,6.99368 35.91958,12.97623 36.53756,13.22902 0.61797,0.33705 1.31318,0.58983 1.54493,0.67409 0.23173,0 6.56594,2.27506 14.13608,5.05567 l 13.82711,4.97143 91.22801,-33.19896 c 50.21017,-18.20044 92.38671,-33.70453 93.62266,-34.37863 3.1671,-1.60096 5.02101,-4.29732 5.02101,-7.16221 0,-2.86489 -2.08565,-6.99369 -3.78507,-7.66777 C 384.57502,71.64128 342.86197,56.389977 292.57456,38.105287 242.36439,19.736317 200.1106,4.7378032 198.72016,4.8220642 c -1.31318,0 -43.87595,15.1670368 -94.5496,33.6202728 z"
     id="path2"
     style="fill:#dd2a24;fill-opacity:1;stroke-width:0.80677658"
     inkscape:connector-curvature="0" />
  <path
     d="m 261.5215,154.21738 c -42.949,15.67259 -59.47974,21.31811 -62.18336,21.40237 -2.93537,0 -16.45349,-4.55011 -60.87017,-20.64402 -44.030464,-16.00965 -57.162354,-20.4755 -57.625834,-19.54863 -1.0042,1.68523 -2.39464,10.70119 -2.70363,16.93653 -0.23173,5.30846 -0.0772,5.72977 1.85392,7.07795 3.47609,2.52783 6.72044,6.74091 8.8061,11.37528 2.54912,5.6455 3.08985,8.84744 3.16709,16.34669 0,6.99368 -1.62217,12.30214 -5.32999,17.61062 l -2.54914,3.62323 1.69942,2.10653 c 5.4845,7.07795 19.852334,15.84113 34.529144,21.14959 11.97321,4.38159 30.89857,9.10023 41.63583,10.27988 1.93116,0.25278 6.87492,0.84261 11.04623,1.34818 8.26537,0.92688 39.70465,1.26392 47.66103,0.4213 2.78088,-0.25277 7.10667,-0.75835 9.6558,-1.01113 2.54914,-0.25278 5.4845,-0.58983 6.56596,-0.75835 10.11927,-1.68523 13.74985,-2.44358 20.08406,-3.96028 31.43929,-7.33073 54.53596,-21.06533 61.4109,-36.48515 l 2.24014,-4.97141 0.0772,-31.85079 c 0,-17.52634 -0.1545,-31.85077 -0.38623,-31.7665 -0.23174,0 -26.65002,9.60578 -58.78452,21.31811 z"
     id="path4"
     style="fill:#dd2a24;fill-opacity:1;stroke-width:0.80677658"
     inkscape:connector-curvature="0" />
</svg>
