<svg version="1" xmlns="http://www.w3.org/2000/svg" width="682.667" height="682.667" viewBox="0 0 512.000000 512.000000"><path d="M133.2 129c-80 26.7-119.8 40.4-120.8 41.7-3.7 4.9-2.9 11.4 1.8 14.3 1.8 1 14.9 5.8 29.2 10.6 14.4 4.7 26.3 8.8 26.5 9 .2.2-.7 1.8-2.1 3.6-7.9 10.5-14.5 28.6-17.2 46.8-1 6.3-1.9 13-2.2 14.7-.3 2.3-1.3 3.7-3.3 4.7-3.3 1.8-7.6 7.2-9.8 12.3-1.1 2.7-1.4 5.8-1 10.6.4 5.6 1 7.6 3.8 11.7 1.8 2.7 5 5.9 7.1 7.2 3.1 1.9 3.7 2.8 3.3 4.8-.3 1.4-.7 4.1-1 6-1.1 6.9-1.7 9.6-4.2 18.5C36.9 367.9 26.6 385.3 8 405c-3.8 4.1-7 7.8-7 8.1 0 2.2 11.2 9 25.9 15.8 7.7 3.5 10.2 4.2 13.6 3.9 11.6-1.4 25-14 31.7-30 4.4-10.3 5.9-20.2 5.8-36.8-.1-16.8-.4-20-2.5-37.3L73.8 316l3.1-2.9c10.1-9.4 9.3-28-1.5-36.9-3.7-3.1-3.8-4.1-1.9-15.2.3-1.4.7-4.1 1-6 1.8-10.9 5.6-22 10-29.1 6-9.7 15.5-17.1 31.5-24.6 18.8-8.8 88.7-36.5 122.5-48.5 11.3-4 14.9-4.9 18.5-4.5 11.4 1.3 13.7 16.3 3.2 21.6-2 1-7.5 3.1-12.2 4.6-15.3 5-68.6 25.2-80.5 30.6-1.1.4-11 4.5-22 8.9-11 4.5-20.1 8.3-20.3 8.5-.2.1 20.3 7.1 45.5 15.5 25.2 8.3 46.5 15.4 47.3 15.7.8.4 1.7.7 2 .8.3 0 8.5 2.7 18.3 6l17.9 5.9L374.3 227c65-21.6 119.6-40 121.2-40.8 4.1-1.9 6.5-5.1 6.5-8.5 0-3.4-2.7-8.3-4.9-9.1-.9-.2-54.9-18.3-120-40-65-21.8-119.7-39.6-121.5-39.5-1.7 0-56.8 18-122.4 39.9z"/><path d="M336.9 266.4c-55.6 18.6-77 25.3-80.5 25.4-3.8 0-21.3-5.4-78.8-24.5-57-19-74-24.3-74.6-23.2-1.3 2-3.1 12.7-3.5 20.1-.3 6.3-.1 6.8 2.4 8.4 4.5 3 8.7 8 11.4 13.5 3.3 6.7 4 10.5 4.1 19.4 0 8.3-2.1 14.6-6.9 20.9l-3.3 4.3 2.2 2.5c7.1 8.4 25.7 18.8 44.7 25.1 15.5 5.2 40 10.8 53.9 12.2 2.5.3 8.9 1 14.3 1.6 10.7 1.1 51.4 1.5 61.7.5 3.6-.3 9.2-.9 12.5-1.2 3.3-.3 7.1-.7 8.5-.9 13.1-2 17.8-2.9 26-4.7 40.7-8.7 70.6-25 79.5-43.3l2.9-5.9.1-37.8c0-20.8-.2-37.8-.5-37.7-.3 0-34.5 11.4-76.1 25.3z"/></svg>